<?xml version="1.0" standalone="no"?>
<svg width="64" height="64" viewBox="0 0 416 384" version="1.1" xmlns="http://www.w3.org/2000/svg">
  <path d="M302 384c64 0 114 -50 114 -115c0 -80 -71 -144 -178 -242l-30 -27l-30 27c-107 98 -178 162 -178 242c0 65 50 115 114 115c36 0 71 -17 94 -44c23 27 58 44 94 44zM221 55c50 46 94 86 123 122c28 35 40 63 40 92c0 23 -9 44 -24 59s-35 24 -58 24 c-26 0 -53 -13 -70 -33l-24 -29l-24 29c-17 20 -44 33 -70 33c-23 0 -43 -9 -58 -24s-24 -36 -24 -59c0 -29 12 -57 40 -92c29 -36 73 -76 123 -122l4 -4l9 -8l9 8z" transform="matrix(1,0,0,-1,0,384)"/>
</svg>