<?xml version="1.0" standalone="no"?>
<svg width="64" height="64" viewBox="0 0 512 384" version="1.1" xmlns="http://www.w3.org/2000/svg">
  <path d="M224 416c124 0 224 -100 224 -224s-100 -224 -224 -224s-224 100 -224 224s100 224 224 224zM244 89c1 18 -12 31 -29 31c-16 0 -30 -11 -30 -29s12 -30 28 -30c17 0 31 10 31 28zM293 217c7 10 12 22 12 36c0 23 -9 40 -25 52c-17 13 -37 18 -62 18 c-19 0 -34 -4 -47 -13c-19 -13 -28 -34 -28 -68h49c0 9 -1 19 4 27s13 15 26 15s19 -3 25 -11c5 -7 8 -15 8 -23c0 -7 -4 -14 -8 -20c-2 -4 -6 -7 -10 -10c0 0 -26 -15 -35 -30c-7 -11 -9 -24 -10 -41c0 -1 0 -4 4 -4h39s5 3 5 4c0 6 1 15 2 19c2 7 6 12 12 17l14 9 c12 9 21 17 25 23z" transform="matrix(1,0,0,-1,0,384)"/>
</svg>