<?xml version="1.0" standalone="no"?>
<svg width="64" height="64" viewBox="0 0 352 384" version="1.1" xmlns="http://www.w3.org/2000/svg">
  <path d="M315 318c10 -4 12 -13 9 -20l-148 -330s-143 320 -148 331s2 16 9 19c39 18 90 28 139 28s96 -9 139 -28zM112 256c18 0 32 14 32 32s-14 32 -32 32s-32 -14 -32 -32s14 -32 32 -32zM176 109c18 0 32 14 32 32s-14 32 -32 32s-32 -14 -32 -32s14 -32 32 -32zM240 224 c18 0 32 14 32 32s-14 32 -32 32s-32 -14 -32 -32s14 -32 32 -32zM342 382c6 -3 10 -6 10 -13c0 -1 0 -3 -1 -5l-8 -19c-3 -5 -8 -9 -14 -9c-1 0 -3 1 -6 2c-41 18 -95 30 -147 30s-102 -11 -147 -30c-3 -1 -4 -2 -6 -2c-6 0 -11 4 -14 9l-8 19s-1 2 -1 5c0 8 6 12 10 14 c49 21 107 33 166 33s118 -13 166 -34z" transform="matrix(1,0,0,-1,0,384)"/>
</svg>