<?xml version="1.0" standalone="no"?>
<svg width="64" height="64" viewBox="0 0 384 384" version="1.1" xmlns="http://www.w3.org/2000/svg">
  <path d="M339 331l45 -118v-160c0 -12 -9 -21 -21 -21h-22c-12 0 -21 9 -21 21v11h-256v-11c0 -12 -9 -21 -21 -21h-22c-12 0 -21 9 -21 21v160l45 118c4 13 16 21 30 21h234c14 0 26 -8 30 -21zM75 128c18 0 32 14 32 32s-14 32 -32 32s-32 -14 -32 -32s14 -32 32 -32zM309 128 c18 0 32 14 32 32s-14 32 -32 32s-32 -14 -32 -32s14 -32 32 -32zM43 235h298l-32 85h-234z" transform="matrix(1,0,0,-1,0,384)"/>
</svg>