<?xml version="1.0" standalone="no"?>
<svg width="64" height="64" viewBox="0 0 224 384" version="1.1" xmlns="http://www.w3.org/2000/svg">
  <path d="M224 278c0 -98 -32 -101 -32 -181c0 -40 16 -71 16 -99c0 -27 -9 -30 -32 -30h-128c-23 0 -32 2 -32 29c0 28 16 60 16 100c0 80 -32 83 -32 181c0 21 1 89 19 125c4 9 13 13 32 13h122c19 0 28 -4 32 -13c18 -36 19 -104 19 -125zM34 396c-8 -16 -14 -43 -17 -76h190 c-3 33 -9 60 -17 76c-1 2 -1 1 -2 2c-2 1 -6 2 -15 2h-122c-9 0 -13 -1 -15 -2c-1 -1 -1 0 -2 -2z" transform="matrix(1,0,0,-1,0,384)"/>
</svg>