<?xml version="1.0" standalone="no"?>
<svg width="64" height="64" viewBox="0 0 512 384" version="1.1" xmlns="http://www.w3.org/2000/svg">
  <path d="M161 168c0 42 21 63 63 63s63 -21 63 -63s-21 -63 -63 -63s-63 21 -63 63zM408 352c11 0 20 -4 28 -12s12 -17 12 -28v-272c0 -11 -4 -20 -12 -28s-17 -12 -28 -12h-368c-11 0 -20 4 -28 12s-12 17 -12 28v272c0 11 4 20 12 28s17 12 28 12h88l32 32h128l32 -32h88z M224 56c31 0 57 11 79 33s33 48 33 79s-11 57 -33 79s-48 33 -79 33s-57 -11 -79 -33s-33 -48 -33 -79s11 -57 33 -79s48 -33 79 -33z" transform="matrix(1,0,0,-1,0,384)"/>
</svg>